# xmcd
#
# Track frame offsets: 
#        150
#        22040
#        50008
#        72596
#        91359
#        108413
#        130891
#        150061
#        177331
#        195773
#        223901
#
# Disc length: 3222 seconds
#
# Revision: 1
# Processed by: cddbd v1.5.2PL0 Copyright (c) Steve Scherf et al.
# Submitted via: ExactAudioCopy v1.0b3
#
DISCID=950c940b
DTITLE=Cornell Dupree - I'm Alright
DYEAR=2011
DGENRE=Jazz
TTITLE0=Doin' Alright
TTITLE1=The Bird
TTITLE2=Erma's Shades
TTITLE3=Rainy Night In Georgia (producer's mix)
TTITLE4=Grandma's Hands
TTITLE5=Help Me Make It Through The Night
TTITLE6=I Ain't Got You (producer's mix)
TTITLE7=Ham
TTITLE8=Squirrel
TTITLE9=CL Bues
TTITLE10=K.C.
EXTD=
EXTT0=
EXTT1=
EXTT2=
EXTT3=
EXTT4=
EXTT5=
EXTT6=
EXTT7=
EXTT8=
EXTT9=
EXTT10=
PLAYORDER=
